<svg width="24" height="25" viewBox="0 0 24 25" fill="none" xmlns="http://www.w3.org/2000/svg">
<mask id="mask0_3_85" style="mask-type:luminance" maskUnits="userSpaceOnUse" x="0" y="0" width="24" height="25">
<rect y="0.200684" width="24" height="24" fill="white"/>
</mask>
<g mask="url(#mask0_3_85)">
<path fill-rule="evenodd" clip-rule="evenodd" d="M12.75 0.680664C10.8581 0.680664 9.315 2.18816 9.315 4.04066C9.315 4.89004 9.61687 5.47691 10.14 6.21566C10.5094 6.73879 10.5544 7.08566 10.485 7.22066C10.4175 7.35004 10.1587 7.42316 9.825 7.40066C8.63812 7.32004 4.96312 6.89254 4.95 6.89066C4.8675 6.87754 4.78312 6.87566 4.71 6.87566C4.29 6.87566 3.56062 7.07816 3.405 8.43566C3.36375 8.63441 3.17625 9.70879 2.895 13.4307C2.865 13.5825 2.8875 13.7194 2.91 13.8357C3.01312 14.3625 3.36187 14.6757 3.84 14.6757C4.335 14.6757 4.8975 14.3419 5.655 13.8057C6.28687 13.3594 6.81187 13.1607 7.35 13.1607C8.71312 13.1607 9.825 14.2369 9.825 15.5607C9.825 16.8844 8.71312 17.9607 7.35 17.9607C6.71437 17.9607 6.2775 17.7844 5.625 17.2707C4.8675 16.6744 4.29562 16.4007 3.84 16.4007C3.43687 16.4007 3.12562 16.6219 2.97 17.0007C2.88 17.2219 2.86312 17.55 2.895 17.7357C3.14437 20.3475 3.26812 20.8275 3.375 21.2457L3.42 21.4257C3.60562 22.2357 4.17937 22.7607 4.875 22.7607H20.25C21.3637 22.7607 22.08 22.0538 22.08 20.9607V8.54066C22.08 7.71754 21.6412 7.16816 20.76 6.90566C20.7 6.88691 20.6287 6.88504 20.565 6.89066C20.5294 6.89441 16.9256 7.25254 15.645 7.40066C15.5962 7.40629 15.5419 7.41566 15.495 7.41566C15.3731 7.41566 15.1556 7.39691 15.075 7.25066C14.9869 7.09316 15.0112 6.73129 15.345 6.20066L15.405 6.11066C15.9169 5.29691 16.17 4.88629 16.17 4.04066C16.17 2.18816 14.6419 0.680664 12.75 0.680664Z" fill="#C62828"/>
</g>
</svg>
